<svg width="19" height="18" viewBox="0 0 19 18" fill="none" xmlns="http://www.w3.org/2000/svg">
<path d="M10.3131 17.467C10.2145 17.4675 10.1169 17.4483 10.0259 17.4105C9.93487 17.3727 9.85232 17.3171 9.78308 17.247C9.64263 17.1064 9.56374 16.9158 9.56374 16.717C9.56374 16.5183 9.64263 16.3276 9.78308 16.187L15.4431 10.527C16.427 9.54175 16.9793 8.20595 16.9783 6.81349C16.9774 5.42103 16.4234 4.08598 15.4381 3.10202C14.9502 2.61482 14.3712 2.22848 13.734 1.96506C13.0968 1.70163 12.414 1.56629 11.7245 1.56676C10.3321 1.56769 8.99703 2.12174 8.01308 3.10702L2.36308 8.76702C2.06072 9.06888 1.82084 9.4274 1.65718 9.82206C1.49351 10.2167 1.40927 10.6398 1.40927 11.067C1.40927 11.4943 1.49351 11.9173 1.65718 12.312C1.82084 12.7066 2.06072 13.0652 2.36308 13.367C2.98094 13.9581 3.80302 14.288 4.65808 14.288C5.51313 14.288 6.33521 13.9581 6.95308 13.367L12.6131 7.70702C12.8253 7.46828 12.9381 7.15735 12.9283 6.83807C12.9184 6.51879 12.7867 6.21538 12.5602 5.99015C12.3337 5.76492 12.0296 5.63495 11.7102 5.62693C11.3909 5.61891 11.0806 5.73345 10.8431 5.94702L5.19308 11.587C5.05251 11.7289 4.86134 11.8092 4.66161 11.8101C4.46189 11.811 4.26997 11.7326 4.12808 11.592C3.98619 11.4515 3.90595 11.2603 3.90501 11.0606C3.90407 10.8608 3.98251 10.6689 4.12308 10.527L9.78308 4.87702C10.2989 4.36118 10.9986 4.07138 11.7281 4.07138C12.4576 4.07138 13.1572 4.36118 13.6731 4.87702C14.1889 5.39287 14.4787 6.09251 14.4787 6.82202C14.4787 7.55154 14.1889 8.25118 13.6731 8.76702L8.01308 14.427C7.11395 15.277 5.91866 15.7426 4.68151 15.7247C3.44435 15.7069 2.26298 15.207 1.38874 14.3315C0.514503 13.4559 0.0163967 12.2738 0.000397618 11.0367C-0.0156015 9.79948 0.45177 8.60488 1.30308 7.70702L6.95308 2.04702C7.57623 1.40545 8.32068 0.894118 9.14316 0.542738C9.96564 0.191358 10.8498 0.00693706 11.7441 0.00019197C12.6385 -0.00655312 13.5253 0.164512 14.353 0.503447C15.1807 0.842382 15.9327 1.34243 16.5655 1.97453C17.1983 2.60663 17.6991 3.35818 18.0389 4.18551C18.3787 5.01284 18.5507 5.89946 18.5449 6.79383C18.5391 7.68821 18.3556 8.57251 18.0051 9.39536C17.6545 10.2182 17.144 10.9632 16.5031 11.587L10.8431 17.247C10.7738 17.3171 10.6913 17.3727 10.6003 17.4105C10.5093 17.4483 10.4116 17.4675 10.3131 17.467Z" fill="#D9D9D9"/>
</svg>
