<svg width="83" height="90" viewBox="0 0 83 90" fill="none" xmlns="http://www.w3.org/2000/svg">
<path fill-rule="evenodd" clip-rule="evenodd" d="M10.5199 21.961H75.3989V76.906C75.4028 84.113 69.5161 90 62.3089 90H20.6139C13.4069 90 7.5199 84.1133 7.5199 76.906V21.961H10.5199ZM54.7739 27.961V66.262C54.7739 70.2112 48.7739 70.2112 48.7739 66.262V27.961H34.1489V66.262C34.1489 70.2112 28.1489 70.2112 28.1489 66.262V27.961H13.5199V76.906C13.5199 80.8005 16.7191 83.9998 20.6137 83.9998H62.3087C66.2032 83.9998 69.4025 80.8006 69.4025 76.906V27.961H54.7739ZM41.4619 0C47.7431 0 53.9499 3.8398 54.8329 9.9336H79.9579C83.9071 9.9336 83.9071 15.9336 79.9579 15.9336H2.9619C-0.9873 15.9336 -0.9873 9.9336 2.9619 9.9336H28.0869C28.9736 3.8398 35.1807 0 41.4619 0ZM47.0049 7.7891C43.0322 4.625 35.8599 5.8789 34.2589 9.9375H48.6609C48.3484 9.13281 47.7705 8.3945 47.0049 7.7891Z" fill="#D9D9D9"/>
</svg>