<svg width="24" height="24" viewBox="0 0 24 24" fill="none" xmlns="http://www.w3.org/2000/svg">
<path d="M23.4462 10.2267C22.6999 9.17574 21.8663 8.18958 20.9542 7.27869L16.9332 11.2997C16.972 11.5272 16.9951 11.7571 17.0022 11.9877C17.0022 13.3138 16.4755 14.5856 15.5378 15.5233C14.6001 16.4609 13.3283 16.9877 12.0022 16.9877C11.7716 16.9805 11.5417 16.9575 11.3142 16.9187L8.05725 20.1757C9.3059 20.7037 10.6466 20.9797 12.0022 20.9877C17.7102 20.9877 21.9072 15.9257 23.4472 13.7477C23.81 13.2323 24.0045 12.6173 24.0043 11.9871C24.0042 11.3568 23.8092 10.742 23.4462 10.2267Z" fill="#D9D9D9"/>
<path d="M12.0022 2.98767C6.29425 2.98767 2.10225 8.04967 0.557247 10.2277C0.194617 10.743 0 11.3577 0 11.9877C0 12.6178 0.194617 13.2325 0.557247 13.7477C1.87682 15.6287 3.49241 17.2835 5.34125 18.6477L8.46525 15.5237C8.0009 15.0594 7.63254 14.5082 7.38121 13.9016C7.12987 13.2949 7.00049 12.6447 7.00044 11.9881C7.00035 10.6619 7.52708 9.38997 8.46475 8.45217C9.4024 7.51436 10.6742 6.98746 12.0004 6.98736C13.3266 6.98727 14.5984 7.514 15.5362 8.45167L8.46525 15.5237L18.6662 5.32367C16.7454 3.86442 14.4138 3.0471 12.0022 2.98767Z" fill="#D9D9D9"/>
<path d="M1.00224 23.9877C0.804493 23.9877 0.611193 23.929 0.446783 23.8191C0.282373 23.7092 0.154233 23.5531 0.0785631 23.3704C0.00289311 23.1877 -0.0169079 22.9866 0.0216631 22.7927C0.0602231 22.5987 0.155433 22.4206 0.295243 22.2807L22.2952 0.280712C22.4839 0.098554 22.7365 -0.00224059 22.9987 3.78016e-05C23.2608 0.0023163 23.5117 0.107485 23.6971 0.292893C23.8825 0.478301 23.9876 0.729114 23.9899 0.991313C23.9922 1.2535 23.8914 1.50611 23.7093 1.69471L1.70924 23.6947C1.52175 23.8823 1.26743 23.9877 1.00224 23.9877Z" fill="#D9D9D9"/>
</svg>
