<svg width="1097" height="1097" viewBox="0 0 1097 1097" fill="none" xmlns="http://www.w3.org/2000/svg">
<rect width="1097" height="1097" rx="250" fill="#D9D9D9"/>
<path d="M549.547 549.432V549.432C549.547 379.88 686.996 240.432 856.547 240.432V240.432" stroke="#141414" stroke-width="40" stroke-linecap="round"/>
<path d="M548.605 550.263V550.263C666.426 428.338 862.169 423.573 984.095 541.395V541.395" stroke="#141414" stroke-width="40" stroke-linecap="round"/>
<path d="M546.547 547.932V547.932C546.547 717.483 409.099 856.932 239.547 856.932V856.932" stroke="#141414" stroke-width="40" stroke-linecap="round"/>
<path d="M547.49 547.1V547.1C429.668 669.025 233.925 673.79 112 555.969V555.969" stroke="#141414" stroke-width="40" stroke-linecap="round"/>
<path d="M548.547 547.932V547.932C378.996 547.932 239.547 410.483 239.547 240.932V240.932" stroke="#141414" stroke-width="40" stroke-linecap="round"/>
<path d="M548.928 548.49V548.49C427.003 430.668 422.238 234.925 540.059 113V113" stroke="#141414" stroke-width="40" stroke-linecap="round"/>
<path d="M547.547 547.932V547.932C717.099 547.932 856.547 685.38 856.547 854.932V854.932" stroke="#141414" stroke-width="40" stroke-linecap="round"/>
<path d="M548.209 547.795V547.795C670.134 665.616 674.899 861.359 557.078 983.285V983.285" stroke="#141414" stroke-width="40" stroke-linecap="round"/>
</svg>
