<svg width="65" height="74" viewBox="0 0 65 74" fill="none" xmlns="http://www.w3.org/2000/svg">
<path fill-rule="evenodd" clip-rule="evenodd" d="M16.25 66.117C11.418 66.117 7.5 62.199 7.5 57.367V16.25C7.5 11.418 11.418 7.5 16.25 7.5H33.309C35.3793 7.5 37.059 5.8203 37.059 3.75C37.059 1.6797 35.3793 0 33.309 0H16.25C7.2773 0 0 7.2734 0 16.25V57.367C0 66.3397 7.2773 73.617 16.25 73.617H33.309C35.3793 73.617 37.059 71.9373 37.059 69.867C37.059 67.7967 35.3793 66.117 33.309 66.117H16.25ZM43.949 53.25C45.4138 54.7148 47.7888 54.7148 49.2537 53.25L63.0427 39.461C63.7458 38.7579 64.1404 37.8048 64.1404 36.8087C64.1404 35.8126 63.7459 34.8595 63.0427 34.1564L49.2537 20.3674C47.7889 18.9026 45.4139 18.9026 43.949 20.3674C42.4842 21.8283 42.4842 24.2033 43.949 25.6682L51.3396 33.0588H24.4766C22.4063 33.0588 20.7266 34.7385 20.7266 36.8088C20.7266 38.8791 22.4063 40.5588 24.4766 40.5588H51.3396L43.949 47.9494C42.4842 49.4142 42.4842 51.7851 43.949 53.25Z" fill="#D9D9D9"/>
</svg>
