<svg width="45" height="45" viewBox="0 0 45 45" fill="none" xmlns="http://www.w3.org/2000/svg">
<path d="M42.9444 0.087402L1.00644 15.2864C0.447854 15.4895 0.0572242 15.9934 0.00644416 16.5872C-0.0482438 17.177 0.248635 17.7434 0.764255 18.0364L13.8543 25.4973C14.3777 25.7825 15.0184 25.7356 15.4949 25.3762L32.3739 12.6182L19.6159 29.4972C19.2526 29.9699 19.2057 30.6144 19.4948 31.1378L26.944 44.2278C27.2369 44.7473 27.8072 45.0481 28.401 44.9973C28.9986 44.9466 29.5065 44.552 29.7057 43.9856L44.8937 2.04764C45.0968 1.48905 44.9562 0.867941 44.5382 0.449941C44.1241 0.0319713 43.503 -0.107908 42.9444 0.087402Z" fill="white"/>
</svg>
