<svg width="24" height="18" viewBox="0 0 24 18" fill="none" xmlns="http://www.w3.org/2000/svg">
<path d="M23.4462 7.239C21.9072 5.062 17.7102 0 12.0022 0C6.29425 0 2.10225 5.062 0.557247 7.24C0.194617 7.75525 0 8.36994 0 9C0 9.63006 0.194617 10.2447 0.557247 10.76C2.10225 12.938 6.29425 18 12.0022 18C17.7102 18 21.9072 12.938 23.4472 10.76C23.81 10.2445 24.0045 9.62962 24.0043 8.99934C24.0042 8.36907 23.8092 7.75425 23.4462 7.239ZM12.0022 14C11.0133 14 10.0466 13.7068 9.2244 13.1573C8.40215 12.6079 7.76129 11.827 7.38285 10.9134C7.00441 9.99979 6.9054 8.99445 7.09832 8.02455C7.29125 7.05464 7.76745 6.16373 8.46672 5.46447C9.166 4.7652 10.0569 4.289 11.0268 4.09607C11.9967 3.90315 13.002 4.00216 13.9157 4.3806C14.8293 4.75904 15.6102 5.3999 16.1596 6.22215C16.709 7.04439 17.0022 8.01109 17.0022 9C17.0022 10.3261 16.4755 11.5979 15.5378 12.5355C14.6001 13.4732 13.3283 14 12.0022 14Z" fill="#D9D9D9"/>
</svg>
